<svg width="32" height="32" viewBox="0 0 32 32" fill="none" xmlns="http://www.w3.org/2000/svg">
<g clip-path="url(#clip0_6577_17854)">
<path d="M20.6667 17.333C19.429 17.333 18.242 17.8247 17.3668 18.6998C16.4917 19.575 16 20.762 16 21.9997V23.333C16 24.5707 16.4917 25.7577 17.3668 26.6328C18.242 27.508 19.429 27.9997 20.6667 27.9997C21.9043 27.9997 23.0913 27.508 23.9665 26.6328C24.8417 25.7577 25.3333 24.5707 25.3333 23.333V20.933" stroke="white" stroke-width="2" stroke-linecap="round" stroke-linejoin="round"/>
<path d="M11.3337 17.333C12.5713 17.333 13.7583 17.8247 14.6335 18.6998C15.5087 19.575 16.0003 20.762 16.0003 21.9997V23.333C16.0003 24.5707 15.5087 25.7577 14.6335 26.6328C13.7583 27.508 12.5713 27.9997 11.3337 27.9997C10.096 27.9997 8.909 27.508 8.03383 26.6328C7.15866 25.7577 6.66699 24.5707 6.66699 23.333V20.933" stroke="white" stroke-width="2" stroke-linecap="round" stroke-linejoin="round"/>
<path d="M23.3337 21.3333C24.5713 21.3333 25.7583 20.8417 26.6335 19.9665C27.5087 19.0913 28.0003 17.9043 28.0003 16.6667C28.0003 15.429 27.5087 14.242 26.6335 13.3668C25.7583 12.4917 24.5713 12 23.3337 12H22.667" stroke="white" stroke-width="2" stroke-linecap="round" stroke-linejoin="round"/>
<path d="M25.3333 12.4V8.66667C25.3333 7.42899 24.8417 6.24201 23.9665 5.36684C23.0913 4.49167 21.9043 4 20.6667 4C19.429 4 18.242 4.49167 17.3668 5.36684C16.4917 6.24201 16 7.42899 16 8.66667" stroke="white" stroke-width="2" stroke-linecap="round" stroke-linejoin="round"/>
<path d="M8.66667 21.3333C7.42899 21.3333 6.24201 20.8417 5.36684 19.9665C4.49167 19.0913 4 17.9043 4 16.6667C4 15.429 4.49167 14.242 5.36684 13.3668C6.24201 12.4917 7.42899 12 8.66667 12H9.33333" stroke="white" stroke-width="2" stroke-linecap="round" stroke-linejoin="round"/>
<path d="M6.66699 12.4V8.66667C6.66699 7.42899 7.15866 6.24201 8.03383 5.36684C8.909 4.49167 10.096 4 11.3337 4C12.5713 4 13.7583 4.49167 14.6335 5.36684C15.5087 6.24201 16.0003 7.42899 16.0003 8.66667V22" stroke="white" stroke-width="2" stroke-linecap="round" stroke-linejoin="round"/>
</g>
<defs>
<clipPath id="clip0_6577_17854">
<rect width="32" height="32" fill="white"/>
</clipPath>
</defs>
</svg>
