<svg preserveAspectRatio="none" width="100%" height="100%" overflow="visible" style="display: block;" viewBox="0 0 129 30" fill="none" xmlns="http://www.w3.org/2000/svg">
<g id="Group">
<path id="Vector" fill-rule="evenodd" clip-rule="evenodd" d="M14.7025 0.983927V1.96716H13.7227V1.4752C13.7227 1.4752 11.7624 0.983927 10.2917 0.983927C10.2917 0.983927 11.7618 0.491965 14.7025 0.983927ZM20.5834 0.983927V1.96716H19.1134V1.4752C19.1134 1.4752 18.1336 0.491962 16.1733 0C16.1733 0 18.1336 3.62932e-06 20.0939 0.983236L20.5834 0.983927ZM17.6426 3.44305V4.91824H17.1524L16.1726 3.93501V3.44305H16.6621C16.6621 3.44305 16.1726 2.45981 15.1921 1.96785C15.1928 1.96716 16.1733 1.96716 17.6426 3.44305ZM22.5437 3.44305H23.5242V5.4102H22.0541V4.42628C22.0541 4.42628 21.5639 3.44304 20.5841 2.45912C21.0737 2.45912 22.0535 2.95108 22.5437 3.44305ZM20.5834 6.39413V7.86932H19.1134V6.39413H19.6036C19.6036 6.39413 19.6036 5.4102 18.1336 3.44305C18.1329 3.44305 19.6036 4.42628 20.5834 6.39413ZM24.9942 6.8854C24.9942 6.8854 24.504 5.4102 24.0137 4.91824L25.4838 6.39413H26.4636V8.36128H24.9935L24.9942 6.8854ZM26.9545 4.91824C27.9343 6.39412 28.9148 8.36128 29.8953 10.3277V11.8036H27.935V9.83648H28.4253C28.4253 9.83648 28.4253 8.36128 26.9552 5.4102L26.9545 4.91824ZM23.5242 9.34451H24.0144V11.3117H21.5639V9.34451H22.5437C22.5437 9.34451 22.5437 7.37736 21.5639 5.4102C21.5632 5.4102 23.0339 6.8854 23.5242 9.34451ZM25.974 12.7876C25.974 12.7876 26.4643 11.3124 25.974 8.85325C25.974 8.85325 26.9545 10.8204 26.9545 12.7876V14.7547H24.504V12.7876H25.974ZM30.3849 12.2956V17.7058H27.9343V15.7379H29.4044C29.4044 15.7379 30.3842 14.2634 29.8946 12.2956H30.3849ZM27.4448 23.6066V21.6387H28.9148C28.4253 22.1314 27.935 23.1146 27.4448 23.6066ZM26.9545 24.5905C26.4643 25.0825 25.974 26.0664 24.9942 26.5583V24.5905H26.9545ZM21.5632 29.0168V27.5409H23.5235C23.0339 28.0328 22.5437 28.5248 21.5632 29.0168ZM8.82097 1.47589V2.45981H6.86068C6.37043 2.95177 5.88019 2.95178 5.88019 3.44305V5.4102H3.43034C3.43034 5.90216 2.94009 6.39413 2.94009 6.8854V8.36059H1.47005C0.490245 10.3277 0 12.7869 0 15.2467C0 16.7212 0.490245 18.1971 0.980491 19.6723V18.6883H2.45054V20.1642H1.96029C1.96029 21.1481 1.96029 22.1307 2.45054 22.6226C2.94009 24.0985 3.92058 25.0825 3.92058 25.0825C6.37112 28.0328 10.7819 30 15.1928 30C17.6433 30 19.6036 30 21.5639 29.0161C21.5639 29.0161 20.0939 29.0161 18.1336 28.5241V28.0322C18.6238 27.0482 19.1134 26.5577 19.1134 26.5577H21.0737V25.0818C21.0737 24.5898 22.5437 23.6059 22.5437 23.6059H24.0144V22.13C24.5047 22.13 25.4845 20.6555 25.4845 20.6555H26.9545V18.6876H26.4643C27.4448 16.2278 26.9545 15.2453 26.9545 15.2453C26.4643 17.2118 25.4845 18.6876 25.4845 18.6876H24.5047V20.1635C24.5047 20.1635 24.0144 21.1475 23.5242 21.638H21.5639V23.1139C21.5639 23.1139 20.5841 24.0978 20.5841 24.5898H18.6238V26.0657C18.6238 26.0657 18.1336 27.0482 18.1336 27.5402H15.683C15.1928 27.0482 14.7025 27.0482 14.7025 26.5577H15.1928V25.5737C15.1928 24.5898 16.1733 23.6059 16.1733 23.6059H18.1336V22.13L19.6036 20.6555H21.0737V19.1796L22.5437 17.7037H24.0144V15.7359H23.5242C24.5047 13.2774 24.0144 11.8022 24.0144 11.8022C24.0144 13.7694 23.0339 15.7359 23.0339 15.7359H22.0541V17.2118L20.5841 18.6876L19.1141 18.1957V20.1635C19.1141 20.1635 18.1342 21.1475 17.644 21.638H16.174V23.1139L15.1935 24.0978H13.2332C12.7429 23.6059 12.2534 23.1139 12.2534 22.13L13.7234 20.6555H15.1935V18.6876L16.174 17.7037H18.1342V16.2278L19.6043 14.7526H21.0743V12.2935C21.0743 9.34244 20.5841 8.3592 20.5841 8.3592C20.5841 10.3264 20.0939 12.7855 20.0939 12.7855H19.1141V14.2607C19.1141 14.2607 18.6245 15.2446 17.644 15.2446H16.174V17.2111L14.7032 18.195H13.2332V20.1628L12.7429 20.6548C12.7429 21.1468 12.2534 20.6548 12.2534 20.6548C12.2534 17.2111 14.7039 15.7359 15.1942 14.7526C18.6252 11.8022 18.1349 8.85117 18.1349 8.85117C17.6447 8.85117 17.1544 9.8344 17.1544 9.8344V11.3096H15.683L14.213 12.7848V14.26H12.7422C11.7624 14.7513 11.2722 15.7345 11.2722 15.7345V17.2104H10.2924C10.2924 17.2104 9.80284 18.6863 9.80284 20.6541V21.1461C9.80284 21.1461 9.31259 19.6702 9.31259 17.7023V15.2439H10.7826C10.7826 15.2439 11.2722 14.7513 12.2527 13.768V12.2928H14.213L15.1928 11.3096V9.34243H17.1531L18.1336 7.37528C17.6433 6.88332 17.6433 6.39205 17.1531 5.90009H15.1928L14.213 6.88332V8.35851H12.7422L11.2722 9.83371V11.3089H9.80146L8.82097 12.7841V14.2593H7.84117C7.84117 14.2593 6.86137 15.7338 6.37112 18.1936C6.37112 18.1936 6.37112 15.7338 6.86137 14.2593H6.37112V12.2921H8.33141L9.80146 10.8169V9.34174H10.7813C10.7813 9.34174 12.2513 8.35851 12.2513 7.86655L12.7409 6.39135H13.7214L15.1914 4.91547V3.44027H15.6816L14.7012 2.45704H12.7409C12.7409 2.94901 11.2708 3.93224 11.2708 3.93224V5.89939H9.80146C9.31121 5.89939 8.33141 6.88263 8.33141 6.88263V8.35782H6.86137C6.37112 8.84978 5.88088 9.83302 5.88088 9.83302V11.3082H4.90038C4.90038 11.3082 3.92058 11.8002 3.92058 14.2593H3.43034C3.43034 14.2593 3.43034 13.2754 3.92058 11.3082V9.34105H5.39063L6.86068 7.86586V6.39413H8.33072L9.80077 4.91824V3.44305H11.2708C11.2708 3.44305 11.7611 2.95177 12.2513 1.96785V1.47589H8.82097ZM15.683 29.0168V28.0328H16.6628V28.5248C16.6628 28.5248 17.6426 29.0168 19.1134 29.0168C19.1134 29.0168 18.1329 29.5087 15.683 29.0168ZM10.2917 29.0168V28.0328H10.7819V28.5248C10.7819 28.5248 11.2715 29.0168 12.7422 29.5087C12.7416 29.5087 12.252 29.5087 10.2917 29.0168ZM12.7416 26.0664V25.0825H13.2318L13.722 25.5744V26.0664H13.2318C13.2318 26.0664 14.2123 27.0489 15.1921 28.0328C15.1928 28.0328 13.2318 27.0489 12.7416 26.0664ZM7.84117 26.0664H6.86137V25.0825H8.33141V25.5744C8.33141 25.5744 8.33141 26.5583 9.31121 27.5409L7.84117 26.0664ZM9.80146 23.1146V22.1307H10.7813V23.1146C10.7813 23.1146 10.7813 24.5905 12.2513 26.0664H11.7611C11.7617 26.0664 10.7819 25.0825 9.80146 23.1146ZM5.39063 23.1146C5.39063 23.1146 5.88019 24.5905 6.37043 25.0825C6.37043 25.0825 5.88019 24.5905 4.90038 23.1146H3.92058V21.6387H5.39063V23.1146ZM6.86137 20.1649V18.689H8.33141V20.1649H7.84117C7.84117 20.1649 7.84117 22.6233 8.82097 24.5905C8.82097 24.5905 7.35161 23.1146 6.86137 20.1649ZM4.41083 17.2131C4.41083 17.2131 3.92058 19.181 4.41083 21.1488C4.41083 21.1488 3.92058 18.689 3.92058 17.2131V15.2467H5.39063V17.2131H4.41083ZM0.979801 17.2131C0.489556 16.2292 0.489556 15.2467 0.489556 14.2627C0.489556 13.2788 0.979801 12.7876 0.979801 12.2956H2.94009V14.2627H0.979801C0.979801 14.2627 0.489556 15.2467 0.979801 17.2131Z" fill="var(--fill-0, white)"/>
<path id="Vector_2" fill-rule="evenodd" clip-rule="evenodd" d="M35.7761 29.0167H41.1668V18.197H48.0281C49.9884 18.197 51.4585 19.1809 51.4585 21.1487V26.5582C51.4585 27.5408 51.4585 28.5247 51.9487 29.0167H58.3199V28.0327C57.34 28.0327 57.3401 27.5408 57.3401 26.0663C56.8498 24.5904 56.8498 20.6568 56.8498 19.6728C56.3596 17.213 54.8895 16.7211 53.909 15.7372C55.8693 14.7539 56.8498 13.7707 57.3401 11.8035C58.3199 9.34442 57.8296 7.37725 57.3401 5.90206C56.3596 2.95098 53.909 1.96706 50.9689 1.47579H35.7761V29.0167ZM41.1675 6.39403H49.0086C51.4592 6.39403 52.4397 7.37726 52.4397 9.34441C52.9299 12.2955 50.4794 13.7707 49.0086 13.7707H41.1675V6.39403ZM74.4924 1.47579H68.1227L58.3199 29.0167H64.2014L66.1617 23.6072H76.4534L78.4144 29.0167H83.805L74.4924 1.47579ZM71.5523 8.36118L74.9827 19.1809H68.1227L71.5523 8.36118ZM84.7855 29.0167H90.1761V20.1648L93.1162 17.213L101.939 29.0167H108.799L97.0361 13.7707L107.819 1.4751H100.958L90.1761 13.7707V1.4751H84.7855V29.0167ZM127.913 9.83638C128.403 9.34441 127.913 6.39402 126.442 4.91814C123.992 1.4751 118.601 1.4751 117.131 1.4751C110.76 1.4751 107.329 4.42617 106.839 8.85245C106.349 13.278 108.799 15.2466 111.739 16.7211C115.66 17.705 121.051 17.705 122.521 19.6728C123.992 21.1487 123.502 23.1152 122.521 24.0984C122.031 25.0824 120.07 25.5743 118.111 25.5743C116.15 25.5743 114.191 25.0824 113.211 24.0984C112.231 23.1145 111.74 21.6386 111.74 21.148H106.349C106.349 23.6065 107.82 26.5575 110.27 28.032C112.231 29.5079 115.661 29.9999 117.131 29.9999C120.071 29.9999 123.012 29.5079 125.463 28.032C128.894 26.0656 130.364 19.1802 127.423 16.2284C125.463 14.262 122.032 13.77 120.562 13.278C119.583 13.278 114.681 12.2948 113.702 11.8028C112.721 11.3109 112.231 10.8189 112.231 8.85176C112.231 6.8846 114.192 5.90068 117.131 5.90068C121.052 5.90068 123.012 7.86784 122.522 9.83499H127.913V9.83638Z" fill="var(--fill-0, white)"/>
</g>
</svg>
