<svg width="32" height="32" viewBox="0 0 32 32" fill="none" xmlns="http://www.w3.org/2000/svg">
<path d="M12.0017 12V22C12.0017 24 8.66829 24 8.66829 24L5.60938 22V10L16.0016 4L26.394 10V22L16.0016 28L13.4036 26.5M22.6683 14C22.6683 13.3333 22.0016 12 19.335 12C16.6683 12 16.0016 13.3333 16.0016 14C16.0016 14.6667 16.0016 15.3333 17.335 16C18.6683 16.6667 20.0016 16.6667 21.335 17.3333C22.6683 18 22.6683 19.3333 22.6683 19.3333C22.6683 20 22.0016 21.3333 19.335 21.3333C16.6683 21.3333 16.0016 20 16.0016 19.3333" stroke="#3D9141" stroke-width="2" stroke-linecap="round" stroke-linejoin="round"/>
</svg>
