<svg width="24" height="24" viewBox="0 0 24 24" fill="none" xmlns="http://www.w3.org/2000/svg">
<g clip-path="url(#clip0_5662_12712)">
<path d="M22.2804 9.82305C22.8249 8.18875 22.6374 6.39846 21.7666 4.91195C20.4571 2.63191 17.8245 1.45886 15.2535 2.01091C14.1097 0.722361 12.4664 -0.0103887 10.7437 0.000111317C8.11561 -0.00588868 5.78381 1.68616 4.97526 4.18671C3.28696 4.53245 1.82972 5.58925 0.976918 7.087C-0.342332 9.36105 -0.041582 12.2276 1.72096 14.1776C1.17646 15.8119 1.36396 17.6022 2.23471 19.0887C3.54426 21.3688 6.17681 22.5418 8.74786 21.9898C9.8909 23.2783 11.5349 24.0111 13.2577 23.9998C15.8872 24.0066 18.2198 22.313 19.0283 19.8102C20.7166 19.4645 22.1739 18.4077 23.0267 16.9099C24.3445 14.6359 24.043 11.7716 22.2812 9.82155L22.2804 9.82305ZM13.2592 22.4316C12.2069 22.4331 11.1877 22.0648 10.3799 21.3906C10.4167 21.3711 10.4804 21.3358 10.5217 21.3103L15.3007 18.5503C15.5452 18.4115 15.6952 18.1513 15.6937 17.87V11.1325L17.7135 12.2988C17.7353 12.3093 17.7495 12.3303 17.7525 12.3543V17.9337C17.7495 20.4148 15.7402 22.4263 13.2592 22.4316ZM3.59596 18.3042C3.06871 17.3937 2.87896 16.3264 3.05971 15.2907C3.09496 15.3117 3.15721 15.3499 3.20146 15.3754L7.98056 18.1355C8.22281 18.2772 8.52281 18.2772 8.76581 18.1355L14.6002 14.7664V17.0989C14.6017 17.1229 14.5904 17.1462 14.5717 17.1612L9.74086 19.9505C7.58906 21.1895 4.84101 20.453 3.59671 18.3042L3.59596 18.3042ZM2.33821 7.87225C2.86321 6.96025 3.69201 6.2627 4.67901 5.90045C4.67901 5.94171 4.67676 6.01446 4.67676 6.06546V11.5863C4.67526 11.8668 4.82526 12.1271 5.06901 12.2658L10.9034 15.6342L8.88361 16.8004C8.86336 16.8139 8.83786 16.8162 8.81536 16.8064L3.98376 14.0149C1.83646 12.7713 1.09996 10.024 2.33746 7.873L2.33821 7.87225ZM18.933 11.7341L13.0987 8.365L15.1185 7.1995C15.1387 7.186 15.1642 7.18375 15.1867 7.1935L20.0183 9.9828C22.1693 11.2255 22.9066 13.9774 21.6638 16.1284C21.1381 17.0389 20.31 17.7365 19.3238 18.0995V12.4136C19.326 12.1331 19.1768 11.8736 18.9338 11.7341H18.933ZM20.9431 8.7085C20.9078 8.68675 20.8456 8.64925 20.8013 8.62375L16.0222 5.86371C15.78 5.72196 15.48 5.72196 15.237 5.86371L9.40261 9.23275V6.90021C9.4011 6.8762 9.41236 6.85295 9.4311 6.83795L14.2619 4.05091C16.4137 2.80961 19.1648 3.54841 20.4053 5.70096C20.9296 6.61 21.1193 7.67425 20.9416 8.7085H20.9431ZM8.30461 12.8658L6.28406 11.6996C6.26231 11.6891 6.24806 11.6681 6.24506 11.6441V6.0647C6.24656 3.58066 8.26186 1.56761 10.7459 1.56911C11.7967 1.56911 12.8137 1.93811 13.6214 2.61011C13.5847 2.62961 13.5217 2.66486 13.4797 2.69036L8.70061 5.45046C8.45611 5.58921 8.3061 5.8487 8.3076 6.12995L8.30461 12.8643V12.8658ZM9.40186 10.5003L12.0007 8.9995L14.5995 10.4995V13.5003L12.0007 15.0004L9.40186 13.5003V10.5003Z" fill="#181818"/>
</g>
<defs>
<clipPath id="clip0_5662_12712">
<rect width="24" height="24" fill="white"/>
</clipPath>
</defs>
</svg>
