<svg width="24" height="24" viewBox="0 0 24 24" fill="none" xmlns="http://www.w3.org/2000/svg">
<g clip-path="url(#clip0_5662_12703)">
<path d="M20.074 12C20.3796 11.6844 20.6637 11.368 20.9231 11.0527C22.5646 9.05756 23.0716 7.27144 22.3511 6.02344C21.6306 4.77539 19.8303 4.32155 17.2817 4.74548C16.8804 4.81223 16.4659 4.89975 16.0414 5.00597C15.9197 4.57622 15.7864 4.16498 15.6413 3.77597C14.7334 1.341 13.4401 0 11.9994 0C10.5587 0 9.26537 1.341 8.35749 3.77597C8.21246 4.16498 8.07915 4.57622 7.95746 5.00597C7.53301 4.8997 7.11854 4.81223 6.71719 4.74548C4.16869 4.32164 2.36827 4.77539 1.64776 6.02344C0.927194 7.27148 1.43433 9.05756 3.07576 11.0527C3.33516 11.368 3.61932 11.6844 3.92485 12C3.61932 12.3156 3.33521 12.632 3.07576 12.9473C1.43429 14.9424 0.927147 16.7285 1.64771 17.9766C2.55732 19.552 4.92779 19.5522 6.71715 19.2545C7.11849 19.1878 7.53296 19.1003 7.95741 18.994C8.0791 19.4238 8.21241 19.835 8.35744 20.224C9.26537 22.659 10.5587 24 11.9994 24C13.4401 24 14.7334 22.659 15.6413 20.224C15.7863 19.835 15.9197 19.4238 16.0414 18.994C16.4659 19.1003 16.8804 19.1878 17.2817 19.2545C19.071 19.5521 21.4416 19.552 22.3511 17.9766C23.0716 16.7286 22.5646 14.9424 20.9231 12.9473C20.6637 12.632 20.3796 12.3156 20.074 12ZM6.48638 17.8673C4.61368 18.1788 3.26007 17.9568 2.86552 17.2734C2.47097 16.59 2.95552 15.3068 4.16162 13.8407C4.3988 13.5525 4.65891 13.2628 4.93894 12.9735C5.62332 13.5865 6.38335 14.1894 7.20258 14.7689C7.29441 15.7678 7.43593 16.7279 7.62376 17.6284C7.23399 17.7259 6.85393 17.8062 6.48638 17.8673ZM7.09182 12.9383C6.6938 12.6294 6.31533 12.316 5.9589 12C6.31533 11.6841 6.6938 11.3706 7.09182 11.0617C7.08249 11.3724 7.07752 11.6852 7.07752 12C7.07752 12.3148 7.08249 12.6276 7.09182 12.9383ZM7.20263 9.23109C6.3834 9.81056 5.62337 10.4135 4.93899 11.0265C4.65896 10.7372 4.3988 10.4475 4.16166 10.1593C2.95557 8.6932 2.47102 7.40995 2.86557 6.72656C3.26012 6.04322 4.61368 5.82117 6.48643 6.1327C6.85393 6.19383 7.23404 6.27408 7.62385 6.37162C7.43597 7.27214 7.29446 8.23228 7.20263 9.23109ZM15.2668 8.21977C15.0022 8.05612 14.7333 7.89516 14.4603 7.73752C14.1877 7.58011 13.9142 7.428 13.6406 7.28081C14.1079 7.09027 14.5693 6.91894 15.0219 6.76805C15.1168 7.23544 15.1986 7.72045 15.2668 8.21977ZM9.6751 4.26727C10.3431 2.4758 11.2119 1.40625 11.9994 1.40625C12.7868 1.40625 13.6557 2.4758 14.3237 4.26727C14.4567 4.62413 14.5792 5.00194 14.6911 5.39728C13.8165 5.68378 12.9126 6.04106 11.9994 6.46163C11.0862 6.04106 10.1823 5.68373 9.30769 5.39728C9.41963 5.00194 9.54207 4.62408 9.6751 4.26727ZM8.97694 6.76805C9.42952 6.91894 9.89096 7.09027 10.3583 7.28081C10.0846 7.428 9.81113 7.58011 9.53846 7.73752C9.26546 7.89516 8.99663 8.05608 8.73197 8.21977C8.80018 7.72045 8.88197 7.23544 8.97694 6.76805ZM8.73197 15.7802C8.99663 15.9439 9.26546 16.1048 9.53846 16.2625C9.81108 16.4199 10.0846 16.572 10.3583 16.7192C9.89096 16.9097 9.42952 17.0811 8.97694 17.232C8.88197 16.7646 8.80018 16.2795 8.73197 15.7802ZM14.3237 19.7327C13.6557 21.5242 12.7868 22.5938 11.9994 22.5938C11.2119 22.5938 10.3431 21.5242 9.6751 19.7327C9.54207 19.3759 9.41963 18.9981 9.30769 18.6027C10.1823 18.3163 11.0862 17.9589 11.9994 17.5384C12.9126 17.9589 13.8165 18.3162 14.6911 18.6027C14.5792 18.9981 14.4567 19.3759 14.3237 19.7327ZM15.0219 17.232C14.5693 17.0811 14.1078 16.9098 13.6405 16.7192C13.9142 16.572 14.1877 16.4199 14.4603 16.2625C14.7333 16.1049 15.0021 15.9439 15.2668 15.7802C15.1986 16.2795 15.1168 16.7646 15.0219 17.232ZM15.4481 13.9909C14.9075 14.3541 14.3425 14.7067 13.7572 15.0446C13.172 15.3825 12.5842 15.6954 11.9994 15.982C11.4146 15.6955 10.8268 15.3825 10.2416 15.0446C9.6563 14.7067 9.09127 14.3541 8.55071 13.9909C8.5066 13.3409 8.48377 12.6753 8.48377 12C8.48377 11.3247 8.5066 10.6591 8.55071 10.0091C9.09127 9.64594 9.6563 9.29325 10.2416 8.95538C10.8268 8.6175 11.4146 8.30456 11.9994 8.01801C12.5842 8.30452 13.172 8.6175 13.7572 8.95538C14.3425 9.29325 14.9075 9.64594 15.4481 10.0091C15.4922 10.6591 15.515 11.3247 15.515 12C15.515 12.6753 15.4922 13.3409 15.4481 13.9909ZM17.5124 6.1327C19.3851 5.82117 20.7387 6.04322 21.1332 6.72656C21.5278 7.40995 21.0433 8.6932 19.8371 10.1593C19.5999 10.4475 19.3398 10.7372 19.0598 11.0265C18.3754 10.4135 17.6154 9.81056 16.7962 9.23109C16.7043 8.23223 16.5628 7.27214 16.375 6.37162C16.7648 6.27408 17.1449 6.19383 17.5124 6.1327ZM16.907 11.0617C17.305 11.3706 17.6835 11.684 18.0399 12C17.6835 12.3159 17.305 12.6294 16.907 12.9383C16.9163 12.6276 16.9213 12.3148 16.9213 12C16.9213 11.6852 16.9163 11.3724 16.907 11.0617ZM21.1332 17.2734C20.7387 17.9568 19.3851 18.1788 17.5124 17.8673C17.1449 17.8062 16.7648 17.7259 16.375 17.6284C16.5628 16.7279 16.7043 15.7678 16.7962 14.7689C17.6154 14.1894 18.3754 13.5864 19.0598 12.9735C19.3398 13.2629 19.5999 13.5525 19.8371 13.8407C21.0433 15.3068 21.5278 16.59 21.1332 17.2734ZM11.9994 9.89062C10.8363 9.89062 9.89002 10.8369 9.89002 12C9.89002 13.1631 10.8363 14.1094 11.9994 14.1094C13.1625 14.1094 14.1088 13.1631 14.1088 12C14.1088 10.8369 13.1626 9.89062 11.9994 9.89062ZM11.9994 12.7031C11.6117 12.7031 11.2963 12.3877 11.2963 12C11.2963 11.6123 11.6117 11.2969 11.9994 11.2969C12.3871 11.2969 12.7025 11.6123 12.7025 12C12.7025 12.3877 12.3871 12.7031 11.9994 12.7031Z" fill="url(#paint0_linear_5662_12703)"/>
</g>
<defs>
<linearGradient id="paint0_linear_5662_12703" x1="11.9994" y1="24" x2="11.9994" y2="0" gradientUnits="userSpaceOnUse">
<stop stop-color="#5558FF"/>
<stop offset="1" stop-color="#00C0FF"/>
</linearGradient>
<clipPath id="clip0_5662_12703">
<rect width="24" height="24" fill="white"/>
</clipPath>
</defs>
</svg>
