<svg width="56" height="56" viewBox="0 0 56 56" fill="none" xmlns="http://www.w3.org/2000/svg">
<rect x="0.5" y="0.5" width="55" height="55" rx="27.5" fill="#EBEFFF"/>
<rect x="0.5" y="0.5" width="55" height="55" rx="27.5" stroke="#DDDDDD"/>
<path d="M38.768 28C39.1754 27.5792 39.5542 27.1574 39.9001 26.7369C42.0887 24.0767 42.7648 21.6952 41.8041 20.0312C40.8434 18.3672 38.443 17.7621 35.0449 18.3273C34.5097 18.4163 33.9571 18.533 33.3911 18.6746C33.2289 18.1016 33.0511 17.5533 32.8577 17.0346C31.6472 13.788 29.9227 12 28.0018 12C26.0809 12 24.3564 13.788 23.1459 17.0346C22.9525 17.5533 22.7748 18.1016 22.6125 18.6746C22.0466 18.5329 21.494 18.4163 20.9589 18.3273C17.5609 17.7622 15.1603 18.3672 14.1996 20.0312C13.2389 21.6953 13.915 24.0767 16.1036 26.7369C16.4495 27.1574 16.8284 27.5792 17.2357 28C16.8284 28.4208 16.4495 28.8426 16.1036 29.2631C13.915 31.9233 13.2388 34.3047 14.1995 35.9688C15.4124 38.0694 18.573 38.0696 20.9588 37.6727C21.4939 37.5837 22.0465 37.467 22.6125 37.3254C22.7747 37.8984 22.9525 38.4467 23.1459 38.9654C24.3564 42.212 26.0809 44 28.0018 44C29.9227 44 31.6472 42.212 32.8577 38.9654C33.0511 38.4467 33.2289 37.8984 33.3911 37.3254C33.9571 37.4671 34.5097 37.5837 35.0449 37.6727C37.4305 38.0695 40.5914 38.0694 41.8041 35.9688C42.7648 34.3048 42.0887 31.9233 39.9001 29.2631C39.5542 28.8426 39.1754 28.4208 38.768 28ZM20.6511 35.8231C18.1542 36.2384 16.3494 35.9424 15.8233 35.0312C15.2972 34.1201 15.9433 32.4091 17.5514 30.4543C17.8677 30.0699 18.2145 29.6838 18.5879 29.2979C19.5004 30.1153 20.5137 30.9193 21.606 31.6919C21.7285 33.0237 21.9172 34.3038 22.1676 35.5045C21.6479 35.6346 21.1412 35.7416 20.6511 35.8231ZM21.4584 29.2511C20.9277 28.8392 20.423 28.4213 19.9478 28C20.423 27.5787 20.9277 27.1608 21.4584 26.7489C21.4459 27.1632 21.4393 27.5803 21.4393 28C21.4393 28.4197 21.4459 28.8368 21.4584 29.2511ZM21.6061 24.3081C20.5138 25.0807 19.5004 25.8847 18.5879 26.7021C18.2145 26.3162 17.8677 25.9301 17.5515 25.5457C15.9434 23.5909 15.2973 21.8799 15.8234 20.9688C16.3494 20.0576 18.1542 19.7616 20.6512 20.1769C21.1412 20.2584 21.648 20.3654 22.1677 20.4955C21.9172 21.6962 21.7285 22.9764 21.6061 24.3081ZM32.3584 22.9597C32.0055 22.7415 31.6471 22.5269 31.2831 22.3167C30.9195 22.1068 30.5549 21.904 30.1901 21.7078C30.8131 21.4537 31.4284 21.2252 32.0318 21.0241C32.1584 21.6472 32.2674 22.2939 32.3584 22.9597ZM24.9027 17.6897C25.7934 15.3011 26.9519 13.875 28.0018 13.875C29.0517 13.875 30.2102 15.3011 31.1009 17.6897C31.2782 18.1655 31.4415 18.6693 31.5907 19.1964C30.4246 19.5784 29.2194 20.0548 28.0018 20.6155C26.7842 20.0548 25.579 19.5783 24.4129 19.1964C24.5621 18.6693 24.7254 18.1654 24.9027 17.6897ZM23.9719 21.0241C24.5753 21.2252 25.1905 21.4537 25.8136 21.7078C25.4487 21.904 25.0841 22.1068 24.7205 22.3167C24.3565 22.5269 23.9981 22.7414 23.6452 22.9597C23.7362 22.2939 23.8452 21.6472 23.9719 21.0241ZM23.6452 33.0403C23.9981 33.2585 24.3565 33.4731 24.7205 33.6833C25.084 33.8932 25.4487 34.096 25.8136 34.2922C25.1905 34.5463 24.5753 34.7747 23.9719 34.9759C23.8452 34.3527 23.7362 33.7061 23.6452 33.0403ZM31.1009 38.3103C30.2102 40.6989 29.0517 42.125 28.0018 42.125C26.9519 42.125 25.7934 40.6989 24.9027 38.3103C24.7254 37.8345 24.5621 37.3307 24.4129 36.8036C25.579 36.4217 26.7842 35.9453 28.0018 35.3845C29.2194 35.9453 30.4246 36.4216 31.5907 36.8036C31.4415 37.3307 31.2782 37.8346 31.1009 38.3103ZM32.0317 34.9759C31.4283 34.7747 30.813 34.5464 30.19 34.2922C30.5549 34.096 30.9195 33.8932 31.283 33.6833C31.647 33.4732 32.0054 33.2586 32.3583 33.0403C32.2674 33.7061 32.1584 34.3527 32.0317 34.9759ZM32.6 30.6545C31.8793 31.1387 31.1259 31.609 30.3456 32.0595C29.5653 32.51 28.7815 32.9272 28.0018 33.3093C27.2221 32.9273 26.4383 32.51 25.658 32.0595C24.8777 31.609 24.1243 31.1387 23.4035 30.6545C23.3447 29.7879 23.3143 28.9004 23.3143 28C23.3143 27.0996 23.3447 26.2121 23.4035 25.3455C24.1243 24.8612 24.8777 24.391 25.658 23.9405C26.4383 23.49 27.2221 23.0728 28.0018 22.6907C28.7815 23.0727 29.5653 23.49 30.3456 23.9405C31.1259 24.391 31.8793 24.8612 32.6 25.3455C32.6589 26.2121 32.6893 27.0996 32.6893 28C32.6893 28.9004 32.6589 29.7879 32.6 30.6545ZM35.3524 20.1769C37.8494 19.7616 39.6542 20.0576 40.1802 20.9688C40.7063 21.8799 40.0603 23.5909 38.4521 25.5457C38.1359 25.9301 37.7891 26.3162 37.4157 26.7021C36.5032 25.8847 35.4898 25.0807 34.3975 24.3081C34.275 22.9763 34.0864 21.6962 33.8359 20.4955C34.3557 20.3654 34.8624 20.2584 35.3524 20.1769ZM34.5452 26.7489C35.0759 27.1608 35.5806 27.5787 36.0558 28C35.5806 28.4212 35.0759 28.8392 34.5452 29.2511C34.5577 28.8368 34.5643 28.4197 34.5643 28C34.5643 27.5803 34.5577 27.1632 34.5452 26.7489ZM40.1802 35.0312C39.6542 35.9424 37.8494 36.2384 35.3524 35.8231C34.8624 35.7416 34.3557 35.6346 33.8359 35.5045C34.0864 34.3038 34.275 33.0237 34.3975 31.6919C35.4898 30.9193 36.5032 30.1152 37.4157 29.2979C37.7891 29.6838 38.1359 30.0699 38.4521 30.4543C40.0604 32.4091 40.7063 34.1201 40.1802 35.0312ZM28.0018 25.1875C26.451 25.1875 25.1893 26.4492 25.1893 28C25.1893 29.5508 26.451 30.8125 28.0018 30.8125C29.5526 30.8125 30.8143 29.5508 30.8143 28C30.8143 26.4492 29.5527 25.1875 28.0018 25.1875ZM28.0018 28.9375C27.4849 28.9375 27.0643 28.5169 27.0643 28C27.0643 27.4831 27.4849 27.0625 28.0018 27.0625C28.5187 27.0625 28.9393 27.4831 28.9393 28C28.9393 28.5169 28.5187 28.9375 28.0018 28.9375Z" fill="url(#paint0_linear_5801_22968)"/>
<defs>
<linearGradient id="paint0_linear_5801_22968" x1="28.0018" y1="44" x2="28.0018" y2="12" gradientUnits="userSpaceOnUse">
<stop stop-color="#5558FF"/>
<stop offset="1" stop-color="#00C0FF"/>
</linearGradient>
</defs>
</svg>
